# Mini3D OBJ export
# Coordinates: right-handed, Y-up; units unchanged; world transform baked.
# Geometry only: no materials, textures or colors.
o 立方体
v 0 -0.34375 -0.34375
v 0.37731480598449707 -0.25462964177131653 -0.25462964177131653
v 0.37731480598449707 0.25462964177131653 -0.25462964177131653
v 0 0.34375 -0.34375
v 0 -0.34375 0.34375
v 0.37731480598449707 -0.25462964177131653 0.25462964177131653
v 0.37731480598449707 0.25462964177131653 0.25462964177131653
v 0 0.34375 0.34375
v -0.37731480598449707 -0.25462964177131653 -0.25462964177131653
v -0.37731480598449707 0.25462964177131653 -0.25462964177131653
v -0.37731480598449707 -0.25462964177131653 0.25462964177131653
v -0.37731480598449707 0.25462964177131653 0.25462964177131653
v 0.2376302033662796 -0.3326822817325592 -0.3326822817325592
v 0 0 -0.46875
v 0 -0.46875 0
v -0.2376302033662796 -0.3326822817325592 -0.3326822817325592
v 0.4108072817325592 0 -0.3216145932674408
v 0.4108072817325592 -0.3216145932674408 0
v 0.2376302033662796 0.3326822817325592 -0.3326822817325592
v 0.4108072817325592 0.3216145932674408 0
v 0 0.46875 0
v -0.2376302033662796 0.3326822817325592 -0.3326822817325592
v 0.2376302033662796 -0.3326822817325592 0.3326822817325592
v 0 0 0.46875
v -0.2376302033662796 -0.3326822817325592 0.3326822817325592
v 0.4108072817325592 0 0.3216145932674408
v 0.2376302033662796 0.3326822817325592 0.3326822817325592
v -0.2376302033662796 0.3326822817325592 0.3326822817325592
v -0.4108072817325592 0 -0.3216145932674408
v -0.4108072817325592 -0.3216145932674408 0
v -0.4108072817325592 0.3216145932674408 0
v -0.4108072817325592 0 0.3216145932674408
v 0.2406684011220932 0 0.4539930522441864
v 0.2406684011220932 0 -0.4539930522441864
v 0.4696180522441864 0 0
v 0.2406684011220932 0.4539930522441864 0
v 0.2406684011220932 -0.4539930522441864 0
v -0.2406684011220932 0 0.4539930522441864
v -0.2406684011220932 0 -0.4539930522441864
v -0.4696180522441864 0 0
v -0.2406684011220932 0.4539930522441864 0
v -0.2406684011220932 -0.4539930522441864 0
v 0.125 -0.34375 -0.34375
v 0 -0.1875 -0.4375
v 0 -0.4375 -0.1875
v -0.125 -0.34375 -0.34375
v 0.3255208432674408 -0.29947918653488159 -0.29947918653488159
v 0.3997395932674408 -0.1510416716337204 -0.29947918653488159
v 0.3997395932674408 -0.29947918653488159 -0.1510416716337204
v 0.3997395932674408 0.1510416716337204 -0.29947918653488159
v 0.3255208432674408 0.29947918653488159 -0.29947918653488159
v 0.3997395932674408 0.29947918653488159 -0.1510416716337204
v 0 0.1875 -0.4375
v 0.125 0.34375 -0.34375
v 0 0.4375 -0.1875
v -0.125 0.34375 -0.34375
v 0 -0.4375 0.1875
v 0.125 -0.34375 0.34375
v 0 -0.1875 0.4375
v -0.125 -0.34375 0.34375
v 0.3997395932674408 -0.29947918653488159 0.1510416716337204
v 0.3255208432674408 -0.29947918653488159 0.29947918653488159
v 0.3997395932674408 -0.1510416716337204 0.29947918653488159
v 0.3997395932674408 0.29947918653488159 0.1510416716337204
v 0.3997395932674408 0.1510416716337204 0.29947918653488159
v 0.3255208432674408 0.29947918653488159 0.29947918653488159
v 0 0.4375 0.1875
v 0 0.1875 0.4375
v 0.125 0.34375 0.34375
v -0.125 0.34375 0.34375
v -0.3255208432674408 -0.29947918653488159 -0.29947918653488159
v -0.3997395932674408 -0.1510416716337204 -0.29947918653488159
v -0.3997395932674408 -0.29947918653488159 -0.1510416716337204
v -0.3255208432674408 0.29947918653488159 -0.29947918653488159
v -0.3997395932674408 0.1510416716337204 -0.29947918653488159
v -0.3997395932674408 0.29947918653488159 -0.1510416716337204
v -0.3255208432674408 -0.29947918653488159 0.29947918653488159
v -0.3997395932674408 -0.29947918653488159 0.1510416716337204
v -0.3997395932674408 -0.1510416716337204 0.29947918653488159
v -0.3255208432674408 0.29947918653488159 0.29947918653488159
v -0.3997395932674408 0.29947918653488159 0.1510416716337204
v -0.3997395932674408 0.1510416716337204 0.29947918653488159
v 0.2391493022441864 -0.1814236044883728 -0.4236111044883728
v 0.2391493022441864 -0.4236111044883728 -0.1814236044883728
v 0.125 0 -0.46875
v -0.125 0 -0.46875
v 0.125 -0.46875 0
v -0.125 -0.46875 0
v -0.2391493022441864 -0.1814236044883728 -0.4236111044883728
v -0.2391493022441864 -0.4236111044883728 -0.1814236044883728
v 0.3376736044883728 0 -0.40972220897674561
v 0.4548611044883728 0 -0.1753472238779068
v 0.4548611044883728 -0.1753472238779068 0
v 0.3376736044883728 -0.40972220897674561 0
v 0.2391493022441864 0.1814236044883728 -0.4236111044883728
v 0.2391493022441864 0.4236111044883728 -0.1814236044883728
v 0.4548611044883728 0.1753472238779068 0
v 0.3376736044883728 0.40972220897674561 0
v 0.125 0.46875 0
v -0.125 0.46875 0
v -0.2391493022441864 0.1814236044883728 -0.4236111044883728
v -0.2391493022441864 0.4236111044883728 -0.1814236044883728
v 0.2391493022441864 -0.1814236044883728 0.4236111044883728
v 0.2391493022441864 -0.4236111044883728 0.1814236044883728
v 0.125 0 0.46875
v -0.125 0 0.46875
v -0.2391493022441864 -0.1814236044883728 0.4236111044883728
v -0.2391493022441864 -0.4236111044883728 0.1814236044883728
v 0.3376736044883728 0 0.40972220897674561
v 0.4548611044883728 0 0.1753472238779068
v 0.2391493022441864 0.1814236044883728 0.4236111044883728
v 0.2391493022441864 0.4236111044883728 0.1814236044883728
v -0.2391493022441864 0.1814236044883728 0.4236111044883728
v -0.2391493022441864 0.4236111044883728 0.1814236044883728
v -0.3376736044883728 0 -0.40972220897674561
v -0.4548611044883728 0 -0.1753472238779068
v -0.4548611044883728 -0.1753472238779068 0
v -0.3376736044883728 -0.40972220897674561 0
v -0.4548611044883728 0.1753472238779068 0
v -0.3376736044883728 0.40972220897674561 0
v -0.3376736044883728 0 0.40972220897674561
v -0.4548611044883728 0 0.1753472238779068
v 0.125 -0.1875 0.4375
v 0.33159720897674561 -0.1631944477558136 0.3819444477558136
v 0.33159720897674561 0.1631944477558136 0.3819444477558136
v 0.125 0.1875 0.4375
v 0.33159720897674561 -0.1631944477558136 -0.3819444477558136
v 0.125 -0.1875 -0.4375
v 0.125 0.1875 -0.4375
v 0.33159720897674561 0.1631944477558136 -0.3819444477558136
v 0.44097220897674561 -0.1631944477558136 0.1631944477558136
v 0.44097220897674561 -0.1631944477558136 -0.1631944477558136
v 0.44097220897674561 0.1631944477558136 -0.1631944477558136
v 0.44097220897674561 0.1631944477558136 0.1631944477558136
v 0.125 0.4375 0.1875
v 0.33159720897674561 0.3819444477558136 0.1631944477558136
v 0.33159720897674561 0.3819444477558136 -0.1631944477558136
v 0.125 0.4375 -0.1875
v 0.125 -0.4375 -0.1875
v 0.33159720897674561 -0.3819444477558136 -0.1631944477558136
v 0.33159720897674561 -0.3819444477558136 0.1631944477558136
v 0.125 -0.4375 0.1875
v -0.125 0.1875 0.4375
v -0.33159720897674561 0.1631944477558136 0.3819444477558136
v -0.33159720897674561 -0.1631944477558136 0.3819444477558136
v -0.125 -0.1875 0.4375
v -0.33159720897674561 0.1631944477558136 -0.3819444477558136
v -0.125 0.1875 -0.4375
v -0.125 -0.1875 -0.4375
v -0.33159720897674561 -0.1631944477558136 -0.3819444477558136
v -0.44097220897674561 0.1631944477558136 0.1631944477558136
v -0.44097220897674561 0.1631944477558136 -0.1631944477558136
v -0.44097220897674561 -0.1631944477558136 -0.1631944477558136
v -0.44097220897674561 -0.1631944477558136 0.1631944477558136
v -0.125 0.4375 -0.1875
v -0.33159720897674561 0.3819444477558136 -0.1631944477558136
v -0.33159720897674561 0.3819444477558136 0.1631944477558136
v -0.125 0.4375 0.1875
v -0.125 -0.4375 0.1875
v -0.33159720897674561 -0.3819444477558136 0.1631944477558136
v -0.33159720897674561 -0.3819444477558136 -0.1631944477558136
v -0.125 -0.4375 -0.1875
vt 0 0
vn 0 -0.70710678118654746 0.70710678118654746
vt 0.25 0
vn 0.06465264512302743 -0.70562739299101618 0.70562739299101618
vt 0.25 0.25
vn 0.062606982313594559 -0.34094565794644316 0.93799596166137744
vt 0 0.25
vn 0 -0.34174305830092994 0.93979342522871867
vt 0.5 0
vn 0.28693601900314947 -0.67737276332851781 0.67737276332851781
vt 0.5 0.25
vn 0.27589654391725299 -0.33157538729802732 0.90218560152148208
vt 0.25 0.25
vn 0.062606982313594559 -0.34094565794644316 0.93799596166137744
vt 0.25 0
vn 0.06465264512302743 -0.70562739299101618 0.70562739299101618
vt 0.5 0.5
vn 0.26747804243746642 0 0.96356395574648845
vt 0.25 0.5
vn 0.061179509685497256 0 0.99812677931946203
vt 0.25 0.25
vn 0.062606982313594559 -0.34094565794644316 0.93799596166137744
vt 0.5 0.25
vn 0.27589654391725299 -0.33157538729802732 0.90218560152148208
vt 0 0.5
vn 0 0 1
vt 0 0.25
vn 0 -0.34174305830092994 0.93979342522871867
vt 0.25 0.25
vn 0.062606982313594559 -0.34094565794644316 0.93799596166137744
vt 0.25 0.5
vn 0.061179509685497256 0 0.99812677931946203
vt 1 0
vn 0.81649660079594022 -0.40824827059564806 0.40824827059564806
vt 1 0.25
vn 0.8735174587423723 -0.21496293073535933 0.43675872937118615
vt 0.75 0.25
vn 0.60523277431223499 -0.28609868841585423 0.74285989889416104
vt 0.75 0
vn 0.59801787320365341 -0.56673389846072342 0.56673389846072342
vt 1 0.5
vn 0.89442717907898661 0 0.44721361934181564
vt 0.75 0.5
vn 0.61323498868569692 0 0.78990053085920453
vt 0.75 0.25
vn 0.60523277431223499 -0.28609868841585423 0.74285989889416104
vt 1 0.25
vn 0.8735174587423723 -0.21496293073535933 0.43675872937118615
vt 0.5 0.5
vn 0.26747804243746642 0 0.96356395574648845
vt 0.5 0.25
vn 0.27589654391725299 -0.33157538729802732 0.90218560152148208
vt 0.75 0.25
vn 0.60523277431223499 -0.28609868841585423 0.74285989889416104
vt 0.75 0.5
vn 0.61323498868569692 0 0.78990053085920453
vt 0.5 0
vn 0.28693601900314947 -0.67737276332851781 0.67737276332851781
vt 0.75 0
vn 0.59801787320365341 -0.56673389846072342 0.56673389846072342
vt 0.75 0.25
vn 0.60523277431223499 -0.28609868841585423 0.74285989889416104
vt 0.5 0.25
vn 0.27589654391725299 -0.33157538729802732 0.90218560152148208
vt 1 1
vn 0.81649660079594022 0.40824827059564806 0.40824827059564806
vt 0.75 1
vn 0.59801787320365341 0.56673389846072342 0.56673389846072342
vt 0.75 0.75
vn 0.60523277431223499 0.28609868841585423 0.74285989889416104
vt 1 0.75
vn 0.8735174587423723 0.21496293073535933 0.43675872937118615
vt 0.5 1
vn 0.28693601900314947 0.67737276332851781 0.67737276332851781
vt 0.5 0.75
vn 0.27589654391725299 0.33157538729802732 0.90218560152148208
vt 0.75 0.75
vn 0.60523277431223499 0.28609868841585423 0.74285989889416104
vt 0.75 1
vn 0.59801787320365341 0.56673389846072342 0.56673389846072342
vt 0.5 0.5
vn 0.26747804243746642 0 0.96356395574648845
vt 0.75 0.5
vn 0.61323498868569692 0 0.78990053085920453
vt 0.75 0.75
vn 0.60523277431223499 0.28609868841585423 0.74285989889416104
vt 0.5 0.75
vn 0.27589654391725299 0.33157538729802732 0.90218560152148208
vt 1 0.5
vn 0.89442717907898661 0 0.44721361934181564
vt 1 0.75
vn 0.8735174587423723 0.21496293073535933 0.43675872937118615
vt 0.75 0.75
vn 0.60523277431223499 0.28609868841585423 0.74285989889416104
vt 0.75 0.5
vn 0.61323498868569692 0 0.78990053085920453
vt 0 1
vn 0 0.70710678118654746 0.70710678118654746
vt 0 0.75
vn 0 0.34174305830092994 0.93979342522871867
vt 0.25 0.75
vn 0.062606982313594559 0.34094565794644316 0.93799596166137744
vt 0.25 1
vn 0.06465264512302743 0.70562739299101618 0.70562739299101618
vt 0 0.5
vn 0 0 1
vt 0.25 0.5
vn 0.061179509685497256 0 0.99812677931946203
vt 0.25 0.75
vn 0.062606982313594559 0.34094565794644316 0.93799596166137744
vt 0 0.75
vn 0 0.34174305830092994 0.93979342522871867
vt 0.5 0.5
vn 0.26747804243746642 0 0.96356395574648845
vt 0.5 0.75
vn 0.27589654391725299 0.33157538729802732 0.90218560152148208
vt 0.25 0.75
vn 0.062606982313594559 0.34094565794644316 0.93799596166137744
vt 0.25 0.5
vn 0.061179509685497256 0 0.99812677931946203
vt 0.5 1
vn 0.28693601900314947 0.67737276332851781 0.67737276332851781
vt 0.25 1
vn 0.06465264512302743 0.70562739299101618 0.70562739299101618
vt 0.25 0.75
vn 0.062606982313594559 0.34094565794644316 0.93799596166137744
vt 0.5 0.75
vn 0.27589654391725299 0.33157538729802732 0.90218560152148208
vt 0 0
vn 0.81649660079594022 -0.40824827059564806 -0.40824827059564806
vt 0.25 0
vn 0.59801787320365341 -0.56673389846072342 -0.56673389846072342
vt 0.25 0.25
vn 0.60523277431223499 -0.28609868841585423 -0.74285989889416104
vt 0 0.25
vn 0.8735174587423723 -0.21496293073535933 -0.43675872937118615
vt 0.5 0
vn 0.28693601900314947 -0.67737276332851781 -0.67737276332851781
vt 0.5 0.25
vn 0.27589654391725299 -0.33157538729802732 -0.90218560152148208
vt 0.25 0.25
vn 0.60523277431223499 -0.28609868841585423 -0.74285989889416104
vt 0.25 0
vn 0.59801787320365341 -0.56673389846072342 -0.56673389846072342
vt 0.5 0.5
vn 0.26747804243746642 0 -0.96356395574648845
vt 0.25 0.5
vn 0.61323498868569692 0 -0.78990053085920453
vt 0.25 0.25
vn 0.60523277431223499 -0.28609868841585423 -0.74285989889416104
vt 0.5 0.25
vn 0.27589654391725299 -0.33157538729802732 -0.90218560152148208
vt 0 0.5
vn 0.89442717907898661 0 -0.44721361934181564
vt 0 0.25
vn 0.8735174587423723 -0.21496293073535933 -0.43675872937118615
vt 0.25 0.25
vn 0.60523277431223499 -0.28609868841585423 -0.74285989889416104
vt 0.25 0.5
vn 0.61323498868569692 0 -0.78990053085920453
vt 1 0
vn 0 -0.70710678118654746 -0.70710678118654746
vt 1 0.25
vn 0 -0.34174305830092994 -0.93979342522871867
vt 0.75 0.25
vn 0.062606982313594559 -0.34094565794644316 -0.93799596166137744
vt 0.75 0
vn 0.06465264512302743 -0.70562739299101618 -0.70562739299101618
vt 1 0.5
vn 0 0 -1
vt 0.75 0.5
vn 0.061179509685497256 0 -0.99812677931946203
vt 0.75 0.25
vn 0.062606982313594559 -0.34094565794644316 -0.93799596166137744
vt 1 0.25
vn 0 -0.34174305830092994 -0.93979342522871867
vt 0.5 0.5
vn 0.26747804243746642 0 -0.96356395574648845
vt 0.5 0.25
vn 0.27589654391725299 -0.33157538729802732 -0.90218560152148208
vt 0.75 0.25
vn 0.062606982313594559 -0.34094565794644316 -0.93799596166137744
vt 0.75 0.5
vn 0.061179509685497256 0 -0.99812677931946203
vt 0.5 0
vn 0.28693601900314947 -0.67737276332851781 -0.67737276332851781
vt 0.75 0
vn 0.06465264512302743 -0.70562739299101618 -0.70562739299101618
vt 0.75 0.25
vn 0.062606982313594559 -0.34094565794644316 -0.93799596166137744
vt 0.5 0.25
vn 0.27589654391725299 -0.33157538729802732 -0.90218560152148208
vt 1 1
vn 0 0.70710678118654746 -0.70710678118654746
vt 0.75 1
vn 0.06465264512302743 0.70562739299101618 -0.70562739299101618
vt 0.75 0.75
vn 0.062606982313594559 0.34094565794644316 -0.93799596166137744
vt 1 0.75
vn 0 0.34174305830092994 -0.93979342522871867
vt 0.5 1
vn 0.28693601900314947 0.67737276332851781 -0.67737276332851781
vt 0.5 0.75
vn 0.27589654391725299 0.33157538729802732 -0.90218560152148208
vt 0.75 0.75
vn 0.062606982313594559 0.34094565794644316 -0.93799596166137744
vt 0.75 1
vn 0.06465264512302743 0.70562739299101618 -0.70562739299101618
vt 0.5 0.5
vn 0.26747804243746642 0 -0.96356395574648845
vt 0.75 0.5
vn 0.061179509685497256 0 -0.99812677931946203
vt 0.75 0.75
vn 0.062606982313594559 0.34094565794644316 -0.93799596166137744
vt 0.5 0.75
vn 0.27589654391725299 0.33157538729802732 -0.90218560152148208
vt 1 0.5
vn 0 0 -1
vt 1 0.75
vn 0 0.34174305830092994 -0.93979342522871867
vt 0.75 0.75
vn 0.062606982313594559 0.34094565794644316 -0.93799596166137744
vt 0.75 0.5
vn 0.061179509685497256 0 -0.99812677931946203
vt 0 1
vn 0.81649660079594022 0.40824827059564806 -0.40824827059564806
vt 0 0.75
vn 0.8735174587423723 0.21496293073535933 -0.43675872937118615
vt 0.25 0.75
vn 0.60523277431223499 0.28609868841585423 -0.74285989889416104
vt 0.25 1
vn 0.59801787320365341 0.56673389846072342 -0.56673389846072342
vt 0 0.5
vn 0.89442717907898661 0 -0.44721361934181564
vt 0.25 0.5
vn 0.61323498868569692 0 -0.78990053085920453
vt 0.25 0.75
vn 0.60523277431223499 0.28609868841585423 -0.74285989889416104
vt 0 0.75
vn 0.8735174587423723 0.21496293073535933 -0.43675872937118615
vt 0.5 0.5
vn 0.26747804243746642 0 -0.96356395574648845
vt 0.5 0.75
vn 0.27589654391725299 0.33157538729802732 -0.90218560152148208
vt 0.25 0.75
vn 0.60523277431223499 0.28609868841585423 -0.74285989889416104
vt 0.25 0.5
vn 0.61323498868569692 0 -0.78990053085920453
vt 0.5 1
vn 0.28693601900314947 0.67737276332851781 -0.67737276332851781
vt 0.25 1
vn 0.59801787320365341 0.56673389846072342 -0.56673389846072342
vt 0.25 0.75
vn 0.60523277431223499 0.28609868841585423 -0.74285989889416104
vt 0.5 0.75
vn 0.27589654391725299 0.33157538729802732 -0.90218560152148208
vt 0 0
vn 0.81649660079594022 -0.40824827059564806 0.40824827059564806
vt 0.25 0
vn 0.8735174587423723 -0.43675872937118615 0.21496293073535933
vt 0.25 0.25
vn 0.96536748652010917 -0.18447983083503561 0.18447983083503561
vt 0 0.25
vn 0.8735174587423723 -0.21496293073535933 0.43675872937118615
vt 0.5 0
vn 0.89442717907898661 -0.44721361934181564 0
vt 0.5 0.25
vn 0.98363832875103985 -0.18015448429573228 0
vt 0.25 0.25
vn 0.96536748652010917 -0.18447983083503561 0.18447983083503561
vt 0.25 0
vn 0.8735174587423723 -0.43675872937118615 0.21496293073535933
vt 0.5 0.5
vn 1 0 0
vt 0.25 0.5
vn 0.98363832875103985 0 0.18015448429573228
vt 0.25 0.25
vn 0.96536748652010917 -0.18447983083503561 0.18447983083503561
vt 0.5 0.25
vn 0.98363832875103985 -0.18015448429573228 0
vt 0 0.5
vn 0.89442717907898661 0 0.44721361934181564
vt 0 0.25
vn 0.8735174587423723 -0.21496293073535933 0.43675872937118615
vt 0.25 0.25
vn 0.96536748652010917 -0.18447983083503561 0.18447983083503561
vt 0.25 0.5
vn 0.98363832875103985 0 0.18015448429573228
vt 1 0
vn 0.81649660079594022 -0.40824827059564806 -0.40824827059564806
vt 1 0.25
vn 0.8735174587423723 -0.21496293073535933 -0.43675872937118615
vt 0.75 0.25
vn 0.96536748652010917 -0.18447983083503561 -0.18447983083503561
vt 0.75 0
vn 0.8735174587423723 -0.43675872937118615 -0.21496293073535933
vt 1 0.5
vn 0.89442717907898661 0 -0.44721361934181564
vt 0.75 0.5
vn 0.98363832875103985 0 -0.18015448429573228
vt 0.75 0.25
vn 0.96536748652010917 -0.18447983083503561 -0.18447983083503561
vt 1 0.25
vn 0.8735174587423723 -0.21496293073535933 -0.43675872937118615
vt 0.5 0.5
vn 1 0 0
vt 0.5 0.25
vn 0.98363832875103985 -0.18015448429573228 0
vt 0.75 0.25
vn 0.96536748652010917 -0.18447983083503561 -0.18447983083503561
vt 0.75 0.5
vn 0.98363832875103985 0 -0.18015448429573228
vt 0.5 0
vn 0.89442717907898661 -0.44721361934181564 0
vt 0.75 0
vn 0.8735174587423723 -0.43675872937118615 -0.21496293073535933
vt 0.75 0.25
vn 0.96536748652010917 -0.18447983083503561 -0.18447983083503561
vt 0.5 0.25
vn 0.98363832875103985 -0.18015448429573228 0
vt 1 1
vn 0.81649660079594022 0.40824827059564806 -0.40824827059564806
vt 0.75 1
vn 0.8735174587423723 0.43675872937118615 -0.21496293073535933
vt 0.75 0.75
vn 0.96536748652010917 0.18447983083503561 -0.18447983083503561
vt 1 0.75
vn 0.8735174587423723 0.21496293073535933 -0.43675872937118615
vt 0.5 1
vn 0.89442717907898661 0.44721361934181564 0
vt 0.5 0.75
vn 0.98363832875103985 0.18015448429573228 0
vt 0.75 0.75
vn 0.96536748652010917 0.18447983083503561 -0.18447983083503561
vt 0.75 1
vn 0.8735174587423723 0.43675872937118615 -0.21496293073535933
vt 0.5 0.5
vn 1 0 0
vt 0.75 0.5
vn 0.98363832875103985 0 -0.18015448429573228
vt 0.75 0.75
vn 0.96536748652010917 0.18447983083503561 -0.18447983083503561
vt 0.5 0.75
vn 0.98363832875103985 0.18015448429573228 0
vt 1 0.5
vn 0.89442717907898661 0 -0.44721361934181564
vt 1 0.75
vn 0.8735174587423723 0.21496293073535933 -0.43675872937118615
vt 0.75 0.75
vn 0.96536748652010917 0.18447983083503561 -0.18447983083503561
vt 0.75 0.5
vn 0.98363832875103985 0 -0.18015448429573228
vt 0 1
vn 0.81649660079594022 0.40824827059564806 0.40824827059564806
vt 0 0.75
vn 0.8735174587423723 0.21496293073535933 0.43675872937118615
vt 0.25 0.75
vn 0.96536748652010917 0.18447983083503561 0.18447983083503561
vt 0.25 1
vn 0.8735174587423723 0.43675872937118615 0.21496293073535933
vt 0 0.5
vn 0.89442717907898661 0 0.44721361934181564
vt 0.25 0.5
vn 0.98363832875103985 0 0.18015448429573228
vt 0.25 0.75
vn 0.96536748652010917 0.18447983083503561 0.18447983083503561
vt 0 0.75
vn 0.8735174587423723 0.21496293073535933 0.43675872937118615
vt 0.5 0.5
vn 1 0 0
vt 0.5 0.75
vn 0.98363832875103985 0.18015448429573228 0
vt 0.25 0.75
vn 0.96536748652010917 0.18447983083503561 0.18447983083503561
vt 0.25 0.5
vn 0.98363832875103985 0 0.18015448429573228
vt 0.5 1
vn 0.89442717907898661 0.44721361934181564 0
vt 0.25 1
vn 0.8735174587423723 0.43675872937118615 0.21496293073535933
vt 0.25 0.75
vn 0.96536748652010917 0.18447983083503561 0.18447983083503561
vt 0.5 0.75
vn 0.98363832875103985 0.18015448429573228 0
vt 0 0
vn 0 0.70710678118654746 0.70710678118654746
vt 0.25 0
vn 0.06465264512302743 0.70562739299101618 0.70562739299101618
vt 0.25 0.25
vn 0.062606982313594559 0.93799596166137744 0.34094565794644316
vt 0 0.25
vn 0 0.93979342522871867 0.34174305830092994
vt 0.5 0
vn 0.28693601900314947 0.67737276332851781 0.67737276332851781
vt 0.5 0.25
vn 0.27589654391725299 0.90218560152148208 0.33157538729802732
vt 0.25 0.25
vn 0.062606982313594559 0.93799596166137744 0.34094565794644316
vt 0.25 0
vn 0.06465264512302743 0.70562739299101618 0.70562739299101618
vt 0.5 0.5
vn 0.26747804243746642 0.96356395574648845 0
vt 0.25 0.5
vn 0.061179509685497256 0.99812677931946203 0
vt 0.25 0.25
vn 0.062606982313594559 0.93799596166137744 0.34094565794644316
vt 0.5 0.25
vn 0.27589654391725299 0.90218560152148208 0.33157538729802732
vt 0 0.5
vn 0 1 0
vt 0 0.25
vn 0 0.93979342522871867 0.34174305830092994
vt 0.25 0.25
vn 0.062606982313594559 0.93799596166137744 0.34094565794644316
vt 0.25 0.5
vn 0.061179509685497256 0.99812677931946203 0
vt 1 0
vn 0.81649660079594022 0.40824827059564806 0.40824827059564806
vt 1 0.25
vn 0.8735174587423723 0.43675872937118615 0.21496293073535933
vt 0.75 0.25
vn 0.60523277431223499 0.74285989889416104 0.28609868841585423
vt 0.75 0
vn 0.59801787320365341 0.56673389846072342 0.56673389846072342
vt 1 0.5
vn 0.89442717907898661 0.44721361934181564 0
vt 0.75 0.5
vn 0.61323498868569692 0.78990053085920453 0
vt 0.75 0.25
vn 0.60523277431223499 0.74285989889416104 0.28609868841585423
vt 1 0.25
vn 0.8735174587423723 0.43675872937118615 0.21496293073535933
vt 0.5 0.5
vn 0.26747804243746642 0.96356395574648845 0
vt 0.5 0.25
vn 0.27589654391725299 0.90218560152148208 0.33157538729802732
vt 0.75 0.25
vn 0.60523277431223499 0.74285989889416104 0.28609868841585423
vt 0.75 0.5
vn 0.61323498868569692 0.78990053085920453 0
vt 0.5 0
vn 0.28693601900314947 0.67737276332851781 0.67737276332851781
vt 0.75 0
vn 0.59801787320365341 0.56673389846072342 0.56673389846072342
vt 0.75 0.25
vn 0.60523277431223499 0.74285989889416104 0.28609868841585423
vt 0.5 0.25
vn 0.27589654391725299 0.90218560152148208 0.33157538729802732
vt 1 1
vn 0.81649660079594022 0.40824827059564806 -0.40824827059564806
vt 0.75 1
vn 0.59801787320365341 0.56673389846072342 -0.56673389846072342
vt 0.75 0.75
vn 0.60523277431223499 0.74285989889416104 -0.28609868841585423
vt 1 0.75
vn 0.8735174587423723 0.43675872937118615 -0.21496293073535933
vt 0.5 1
vn 0.28693601900314947 0.67737276332851781 -0.67737276332851781
vt 0.5 0.75
vn 0.27589654391725299 0.90218560152148208 -0.33157538729802732
vt 0.75 0.75
vn 0.60523277431223499 0.74285989889416104 -0.28609868841585423
vt 0.75 1
vn 0.59801787320365341 0.56673389846072342 -0.56673389846072342
vt 0.5 0.5
vn 0.26747804243746642 0.96356395574648845 0
vt 0.75 0.5
vn 0.61323498868569692 0.78990053085920453 0
vt 0.75 0.75
vn 0.60523277431223499 0.74285989889416104 -0.28609868841585423
vt 0.5 0.75
vn 0.27589654391725299 0.90218560152148208 -0.33157538729802732
vt 1 0.5
vn 0.89442717907898661 0.44721361934181564 0
vt 1 0.75
vn 0.8735174587423723 0.43675872937118615 -0.21496293073535933
vt 0.75 0.75
vn 0.60523277431223499 0.74285989889416104 -0.28609868841585423
vt 0.75 0.5
vn 0.61323498868569692 0.78990053085920453 0
vt 0 1
vn 0 0.70710678118654746 -0.70710678118654746
vt 0 0.75
vn 0 0.93979342522871867 -0.34174305830092994
vt 0.25 0.75
vn 0.062606982313594559 0.93799596166137744 -0.34094565794644316
vt 0.25 1
vn 0.06465264512302743 0.70562739299101618 -0.70562739299101618
vt 0 0.5
vn 0 1 0
vt 0.25 0.5
vn 0.061179509685497256 0.99812677931946203 0
vt 0.25 0.75
vn 0.062606982313594559 0.93799596166137744 -0.34094565794644316
vt 0 0.75
vn 0 0.93979342522871867 -0.34174305830092994
vt 0.5 0.5
vn 0.26747804243746642 0.96356395574648845 0
vt 0.5 0.75
vn 0.27589654391725299 0.90218560152148208 -0.33157538729802732
vt 0.25 0.75
vn 0.062606982313594559 0.93799596166137744 -0.34094565794644316
vt 0.25 0.5
vn 0.061179509685497256 0.99812677931946203 0
vt 0.5 1
vn 0.28693601900314947 0.67737276332851781 -0.67737276332851781
vt 0.25 1
vn 0.06465264512302743 0.70562739299101618 -0.70562739299101618
vt 0.25 0.75
vn 0.062606982313594559 0.93799596166137744 -0.34094565794644316
vt 0.5 0.75
vn 0.27589654391725299 0.90218560152148208 -0.33157538729802732
vt 0 0
vn 0 -0.70710678118654746 -0.70710678118654746
vt 0.25 0
vn 0.06465264512302743 -0.70562739299101618 -0.70562739299101618
vt 0.25 0.25
vn 0.062606982313594559 -0.93799596166137744 -0.34094565794644316
vt 0 0.25
vn 0 -0.93979342522871867 -0.34174305830092994
vt 0.5 0
vn 0.28693601900314947 -0.67737276332851781 -0.67737276332851781
vt 0.5 0.25
vn 0.27589654391725299 -0.90218560152148208 -0.33157538729802732
vt 0.25 0.25
vn 0.062606982313594559 -0.93799596166137744 -0.34094565794644316
vt 0.25 0
vn 0.06465264512302743 -0.70562739299101618 -0.70562739299101618
vt 0.5 0.5
vn 0.26747804243746642 -0.96356395574648845 0
vt 0.25 0.5
vn 0.061179509685497256 -0.99812677931946203 0
vt 0.25 0.25
vn 0.062606982313594559 -0.93799596166137744 -0.34094565794644316
vt 0.5 0.25
vn 0.27589654391725299 -0.90218560152148208 -0.33157538729802732
vt 0 0.5
vn 0 -1 0
vt 0 0.25
vn 0 -0.93979342522871867 -0.34174305830092994
vt 0.25 0.25
vn 0.062606982313594559 -0.93799596166137744 -0.34094565794644316
vt 0.25 0.5
vn 0.061179509685497256 -0.99812677931946203 0
vt 1 0
vn 0.81649660079594022 -0.40824827059564806 -0.40824827059564806
vt 1 0.25
vn 0.8735174587423723 -0.43675872937118615 -0.21496293073535933
vt 0.75 0.25
vn 0.60523277431223499 -0.74285989889416104 -0.28609868841585423
vt 0.75 0
vn 0.59801787320365341 -0.56673389846072342 -0.56673389846072342
vt 1 0.5
vn 0.89442717907898661 -0.44721361934181564 0
vt 0.75 0.5
vn 0.61323498868569692 -0.78990053085920453 0
vt 0.75 0.25
vn 0.60523277431223499 -0.74285989889416104 -0.28609868841585423
vt 1 0.25
vn 0.8735174587423723 -0.43675872937118615 -0.21496293073535933
vt 0.5 0.5
vn 0.26747804243746642 -0.96356395574648845 0
vt 0.5 0.25
vn 0.27589654391725299 -0.90218560152148208 -0.33157538729802732
vt 0.75 0.25
vn 0.60523277431223499 -0.74285989889416104 -0.28609868841585423
vt 0.75 0.5
vn 0.61323498868569692 -0.78990053085920453 0
vt 0.5 0
vn 0.28693601900314947 -0.67737276332851781 -0.67737276332851781
vt 0.75 0
vn 0.59801787320365341 -0.56673389846072342 -0.56673389846072342
vt 0.75 0.25
vn 0.60523277431223499 -0.74285989889416104 -0.28609868841585423
vt 0.5 0.25
vn 0.27589654391725299 -0.90218560152148208 -0.33157538729802732
vt 1 1
vn 0.81649660079594022 -0.40824827059564806 0.40824827059564806
vt 0.75 1
vn 0.59801787320365341 -0.56673389846072342 0.56673389846072342
vt 0.75 0.75
vn 0.60523277431223499 -0.74285989889416104 0.28609868841585423
vt 1 0.75
vn 0.8735174587423723 -0.43675872937118615 0.21496293073535933
vt 0.5 1
vn 0.28693601900314947 -0.67737276332851781 0.67737276332851781
vt 0.5 0.75
vn 0.27589654391725299 -0.90218560152148208 0.33157538729802732
vt 0.75 0.75
vn 0.60523277431223499 -0.74285989889416104 0.28609868841585423
vt 0.75 1
vn 0.59801787320365341 -0.56673389846072342 0.56673389846072342
vt 0.5 0.5
vn 0.26747804243746642 -0.96356395574648845 0
vt 0.75 0.5
vn 0.61323498868569692 -0.78990053085920453 0
vt 0.75 0.75
vn 0.60523277431223499 -0.74285989889416104 0.28609868841585423
vt 0.5 0.75
vn 0.27589654391725299 -0.90218560152148208 0.33157538729802732
vt 1 0.5
vn 0.89442717907898661 -0.44721361934181564 0
vt 1 0.75
vn 0.8735174587423723 -0.43675872937118615 0.21496293073535933
vt 0.75 0.75
vn 0.60523277431223499 -0.74285989889416104 0.28609868841585423
vt 0.75 0.5
vn 0.61323498868569692 -0.78990053085920453 0
vt 0 1
vn 0 -0.70710678118654746 0.70710678118654746
vt 0 0.75
vn 0 -0.93979342522871867 0.34174305830092994
vt 0.25 0.75
vn 0.062606982313594559 -0.93799596166137744 0.34094565794644316
vt 0.25 1
vn 0.06465264512302743 -0.70562739299101618 0.70562739299101618
vt 0 0.5
vn 0 -1 0
vt 0.25 0.5
vn 0.061179509685497256 -0.99812677931946203 0
vt 0.25 0.75
vn 0.062606982313594559 -0.93799596166137744 0.34094565794644316
vt 0 0.75
vn 0 -0.93979342522871867 0.34174305830092994
vt 0.5 0.5
vn 0.26747804243746642 -0.96356395574648845 0
vt 0.5 0.75
vn 0.27589654391725299 -0.90218560152148208 0.33157538729802732
vt 0.25 0.75
vn 0.062606982313594559 -0.93799596166137744 0.34094565794644316
vt 0.25 0.5
vn 0.061179509685497256 -0.99812677931946203 0
vt 0.5 1
vn 0.28693601900314947 -0.67737276332851781 0.67737276332851781
vt 0.25 1
vn 0.06465264512302743 -0.70562739299101618 0.70562739299101618
vt 0.25 0.75
vn 0.062606982313594559 -0.93799596166137744 0.34094565794644316
vt 0.5 0.75
vn 0.27589654391725299 -0.90218560152148208 0.33157538729802732
vt 0 1
vn 0 0.70710678118654746 0.70710678118654746
vt 0.25 1
vn -0.06465264512302743 0.70562739299101618 0.70562739299101618
vt 0.25 0.75
vn -0.062606982313594559 0.34094565794644316 0.93799596166137744
vt 0 0.75
vn 0 0.34174305830092994 0.93979342522871867
vt 0.5 1
vn -0.28693601900314947 0.67737276332851781 0.67737276332851781
vt 0.5 0.75
vn -0.27589654391725299 0.33157538729802732 0.90218560152148208
vt 0.25 0.75
vn -0.062606982313594559 0.34094565794644316 0.93799596166137744
vt 0.25 1
vn -0.06465264512302743 0.70562739299101618 0.70562739299101618
vt 0.5 0.5
vn -0.26747804243746642 0 0.96356395574648845
vt 0.25 0.5
vn -0.061179509685497256 0 0.99812677931946203
vt 0.25 0.75
vn -0.062606982313594559 0.34094565794644316 0.93799596166137744
vt 0.5 0.75
vn -0.27589654391725299 0.33157538729802732 0.90218560152148208
vt 0 0.5
vn 0 0 1
vt 0 0.75
vn 0 0.34174305830092994 0.93979342522871867
vt 0.25 0.75
vn -0.062606982313594559 0.34094565794644316 0.93799596166137744
vt 0.25 0.5
vn -0.061179509685497256 0 0.99812677931946203
vt 1 1
vn -0.81649660079594022 0.40824827059564806 0.40824827059564806
vt 1 0.75
vn -0.8735174587423723 0.21496293073535933 0.43675872937118615
vt 0.75 0.75
vn -0.60523277431223499 0.28609868841585423 0.74285989889416104
vt 0.75 1
vn -0.59801787320365341 0.56673389846072342 0.56673389846072342
vt 1 0.5
vn -0.89442717907898661 0 0.44721361934181564
vt 0.75 0.5
vn -0.61323498868569692 0 0.78990053085920453
vt 0.75 0.75
vn -0.60523277431223499 0.28609868841585423 0.74285989889416104
vt 1 0.75
vn -0.8735174587423723 0.21496293073535933 0.43675872937118615
vt 0.5 0.5
vn -0.26747804243746642 0 0.96356395574648845
vt 0.5 0.75
vn -0.27589654391725299 0.33157538729802732 0.90218560152148208
vt 0.75 0.75
vn -0.60523277431223499 0.28609868841585423 0.74285989889416104
vt 0.75 0.5
vn -0.61323498868569692 0 0.78990053085920453
vt 0.5 1
vn -0.28693601900314947 0.67737276332851781 0.67737276332851781
vt 0.75 1
vn -0.59801787320365341 0.56673389846072342 0.56673389846072342
vt 0.75 0.75
vn -0.60523277431223499 0.28609868841585423 0.74285989889416104
vt 0.5 0.75
vn -0.27589654391725299 0.33157538729802732 0.90218560152148208
vt 1 0
vn -0.81649660079594022 -0.40824827059564806 0.40824827059564806
vt 0.75 0
vn -0.59801787320365341 -0.56673389846072342 0.56673389846072342
vt 0.75 0.25
vn -0.60523277431223499 -0.28609868841585423 0.74285989889416104
vt 1 0.25
vn -0.8735174587423723 -0.21496293073535933 0.43675872937118615
vt 0.5 0
vn -0.28693601900314947 -0.67737276332851781 0.67737276332851781
vt 0.5 0.25
vn -0.27589654391725299 -0.33157538729802732 0.90218560152148208
vt 0.75 0.25
vn -0.60523277431223499 -0.28609868841585423 0.74285989889416104
vt 0.75 0
vn -0.59801787320365341 -0.56673389846072342 0.56673389846072342
vt 0.5 0.5
vn -0.26747804243746642 0 0.96356395574648845
vt 0.75 0.5
vn -0.61323498868569692 0 0.78990053085920453
vt 0.75 0.25
vn -0.60523277431223499 -0.28609868841585423 0.74285989889416104
vt 0.5 0.25
vn -0.27589654391725299 -0.33157538729802732 0.90218560152148208
vt 1 0.5
vn -0.89442717907898661 0 0.44721361934181564
vt 1 0.25
vn -0.8735174587423723 -0.21496293073535933 0.43675872937118615
vt 0.75 0.25
vn -0.60523277431223499 -0.28609868841585423 0.74285989889416104
vt 0.75 0.5
vn -0.61323498868569692 0 0.78990053085920453
vt 0 0
vn 0 -0.70710678118654746 0.70710678118654746
vt 0 0.25
vn 0 -0.34174305830092994 0.93979342522871867
vt 0.25 0.25
vn -0.062606982313594559 -0.34094565794644316 0.93799596166137744
vt 0.25 0
vn -0.06465264512302743 -0.70562739299101618 0.70562739299101618
vt 0 0.5
vn 0 0 1
vt 0.25 0.5
vn -0.061179509685497256 0 0.99812677931946203
vt 0.25 0.25
vn -0.062606982313594559 -0.34094565794644316 0.93799596166137744
vt 0 0.25
vn 0 -0.34174305830092994 0.93979342522871867
vt 0.5 0.5
vn -0.26747804243746642 0 0.96356395574648845
vt 0.5 0.25
vn -0.27589654391725299 -0.33157538729802732 0.90218560152148208
vt 0.25 0.25
vn -0.062606982313594559 -0.34094565794644316 0.93799596166137744
vt 0.25 0.5
vn -0.061179509685497256 0 0.99812677931946203
vt 0.5 0
vn -0.28693601900314947 -0.67737276332851781 0.67737276332851781
vt 0.25 0
vn -0.06465264512302743 -0.70562739299101618 0.70562739299101618
vt 0.25 0.25
vn -0.062606982313594559 -0.34094565794644316 0.93799596166137744
vt 0.5 0.25
vn -0.27589654391725299 -0.33157538729802732 0.90218560152148208
vt 0 1
vn -0.81649660079594022 0.40824827059564806 -0.40824827059564806
vt 0.25 1
vn -0.59801787320365341 0.56673389846072342 -0.56673389846072342
vt 0.25 0.75
vn -0.60523277431223499 0.28609868841585423 -0.74285989889416104
vt 0 0.75
vn -0.8735174587423723 0.21496293073535933 -0.43675872937118615
vt 0.5 1
vn -0.28693601900314947 0.67737276332851781 -0.67737276332851781
vt 0.5 0.75
vn -0.27589654391725299 0.33157538729802732 -0.90218560152148208
vt 0.25 0.75
vn -0.60523277431223499 0.28609868841585423 -0.74285989889416104
vt 0.25 1
vn -0.59801787320365341 0.56673389846072342 -0.56673389846072342
vt 0.5 0.5
vn -0.26747804243746642 0 -0.96356395574648845
vt 0.25 0.5
vn -0.61323498868569692 0 -0.78990053085920453
vt 0.25 0.75
vn -0.60523277431223499 0.28609868841585423 -0.74285989889416104
vt 0.5 0.75
vn -0.27589654391725299 0.33157538729802732 -0.90218560152148208
vt 0 0.5
vn -0.89442717907898661 0 -0.44721361934181564
vt 0 0.75
vn -0.8735174587423723 0.21496293073535933 -0.43675872937118615
vt 0.25 0.75
vn -0.60523277431223499 0.28609868841585423 -0.74285989889416104
vt 0.25 0.5
vn -0.61323498868569692 0 -0.78990053085920453
vt 1 1
vn 0 0.70710678118654746 -0.70710678118654746
vt 1 0.75
vn 0 0.34174305830092994 -0.93979342522871867
vt 0.75 0.75
vn -0.062606982313594559 0.34094565794644316 -0.93799596166137744
vt 0.75 1
vn -0.06465264512302743 0.70562739299101618 -0.70562739299101618
vt 1 0.5
vn 0 0 -1
vt 0.75 0.5
vn -0.061179509685497256 0 -0.99812677931946203
vt 0.75 0.75
vn -0.062606982313594559 0.34094565794644316 -0.93799596166137744
vt 1 0.75
vn 0 0.34174305830092994 -0.93979342522871867
vt 0.5 0.5
vn -0.26747804243746642 0 -0.96356395574648845
vt 0.5 0.75
vn -0.27589654391725299 0.33157538729802732 -0.90218560152148208
vt 0.75 0.75
vn -0.062606982313594559 0.34094565794644316 -0.93799596166137744
vt 0.75 0.5
vn -0.061179509685497256 0 -0.99812677931946203
vt 0.5 1
vn -0.28693601900314947 0.67737276332851781 -0.67737276332851781
vt 0.75 1
vn -0.06465264512302743 0.70562739299101618 -0.70562739299101618
vt 0.75 0.75
vn -0.062606982313594559 0.34094565794644316 -0.93799596166137744
vt 0.5 0.75
vn -0.27589654391725299 0.33157538729802732 -0.90218560152148208
vt 1 0
vn 0 -0.70710678118654746 -0.70710678118654746
vt 0.75 0
vn -0.06465264512302743 -0.70562739299101618 -0.70562739299101618
vt 0.75 0.25
vn -0.062606982313594559 -0.34094565794644316 -0.93799596166137744
vt 1 0.25
vn 0 -0.34174305830092994 -0.93979342522871867
vt 0.5 0
vn -0.28693601900314947 -0.67737276332851781 -0.67737276332851781
vt 0.5 0.25
vn -0.27589654391725299 -0.33157538729802732 -0.90218560152148208
vt 0.75 0.25
vn -0.062606982313594559 -0.34094565794644316 -0.93799596166137744
vt 0.75 0
vn -0.06465264512302743 -0.70562739299101618 -0.70562739299101618
vt 0.5 0.5
vn -0.26747804243746642 0 -0.96356395574648845
vt 0.75 0.5
vn -0.061179509685497256 0 -0.99812677931946203
vt 0.75 0.25
vn -0.062606982313594559 -0.34094565794644316 -0.93799596166137744
vt 0.5 0.25
vn -0.27589654391725299 -0.33157538729802732 -0.90218560152148208
vt 1 0.5
vn 0 0 -1
vt 1 0.25
vn 0 -0.34174305830092994 -0.93979342522871867
vt 0.75 0.25
vn -0.062606982313594559 -0.34094565794644316 -0.93799596166137744
vt 0.75 0.5
vn -0.061179509685497256 0 -0.99812677931946203
vt 0 0
vn -0.81649660079594022 -0.40824827059564806 -0.40824827059564806
vt 0 0.25
vn -0.8735174587423723 -0.21496293073535933 -0.43675872937118615
vt 0.25 0.25
vn -0.60523277431223499 -0.28609868841585423 -0.74285989889416104
vt 0.25 0
vn -0.59801787320365341 -0.56673389846072342 -0.56673389846072342
vt 0 0.5
vn -0.89442717907898661 0 -0.44721361934181564
vt 0.25 0.5
vn -0.61323498868569692 0 -0.78990053085920453
vt 0.25 0.25
vn -0.60523277431223499 -0.28609868841585423 -0.74285989889416104
vt 0 0.25
vn -0.8735174587423723 -0.21496293073535933 -0.43675872937118615
vt 0.5 0.5
vn -0.26747804243746642 0 -0.96356395574648845
vt 0.5 0.25
vn -0.27589654391725299 -0.33157538729802732 -0.90218560152148208
vt 0.25 0.25
vn -0.60523277431223499 -0.28609868841585423 -0.74285989889416104
vt 0.25 0.5
vn -0.61323498868569692 0 -0.78990053085920453
vt 0.5 0
vn -0.28693601900314947 -0.67737276332851781 -0.67737276332851781
vt 0.25 0
vn -0.59801787320365341 -0.56673389846072342 -0.56673389846072342
vt 0.25 0.25
vn -0.60523277431223499 -0.28609868841585423 -0.74285989889416104
vt 0.5 0.25
vn -0.27589654391725299 -0.33157538729802732 -0.90218560152148208
vt 0 1
vn -0.81649660079594022 0.40824827059564806 0.40824827059564806
vt 0.25 1
vn -0.8735174587423723 0.43675872937118615 0.21496293073535933
vt 0.25 0.75
vn -0.96536748652010917 0.18447983083503561 0.18447983083503561
vt 0 0.75
vn -0.8735174587423723 0.21496293073535933 0.43675872937118615
vt 0.5 1
vn -0.89442717907898661 0.44721361934181564 0
vt 0.5 0.75
vn -0.98363832875103985 0.18015448429573228 0
vt 0.25 0.75
vn -0.96536748652010917 0.18447983083503561 0.18447983083503561
vt 0.25 1
vn -0.8735174587423723 0.43675872937118615 0.21496293073535933
vt 0.5 0.5
vn -1 0 0
vt 0.25 0.5
vn -0.98363832875103985 0 0.18015448429573228
vt 0.25 0.75
vn -0.96536748652010917 0.18447983083503561 0.18447983083503561
vt 0.5 0.75
vn -0.98363832875103985 0.18015448429573228 0
vt 0 0.5
vn -0.89442717907898661 0 0.44721361934181564
vt 0 0.75
vn -0.8735174587423723 0.21496293073535933 0.43675872937118615
vt 0.25 0.75
vn -0.96536748652010917 0.18447983083503561 0.18447983083503561
vt 0.25 0.5
vn -0.98363832875103985 0 0.18015448429573228
vt 1 1
vn -0.81649660079594022 0.40824827059564806 -0.40824827059564806
vt 1 0.75
vn -0.8735174587423723 0.21496293073535933 -0.43675872937118615
vt 0.75 0.75
vn -0.96536748652010917 0.18447983083503561 -0.18447983083503561
vt 0.75 1
vn -0.8735174587423723 0.43675872937118615 -0.21496293073535933
vt 1 0.5
vn -0.89442717907898661 0 -0.44721361934181564
vt 0.75 0.5
vn -0.98363832875103985 0 -0.18015448429573228
vt 0.75 0.75
vn -0.96536748652010917 0.18447983083503561 -0.18447983083503561
vt 1 0.75
vn -0.8735174587423723 0.21496293073535933 -0.43675872937118615
vt 0.5 0.5
vn -1 0 0
vt 0.5 0.75
vn -0.98363832875103985 0.18015448429573228 0
vt 0.75 0.75
vn -0.96536748652010917 0.18447983083503561 -0.18447983083503561
vt 0.75 0.5
vn -0.98363832875103985 0 -0.18015448429573228
vt 0.5 1
vn -0.89442717907898661 0.44721361934181564 0
vt 0.75 1
vn -0.8735174587423723 0.43675872937118615 -0.21496293073535933
vt 0.75 0.75
vn -0.96536748652010917 0.18447983083503561 -0.18447983083503561
vt 0.5 0.75
vn -0.98363832875103985 0.18015448429573228 0
vt 1 0
vn -0.81649660079594022 -0.40824827059564806 -0.40824827059564806
vt 0.75 0
vn -0.8735174587423723 -0.43675872937118615 -0.21496293073535933
vt 0.75 0.25
vn -0.96536748652010917 -0.18447983083503561 -0.18447983083503561
vt 1 0.25
vn -0.8735174587423723 -0.21496293073535933 -0.43675872937118615
vt 0.5 0
vn -0.89442717907898661 -0.44721361934181564 0
vt 0.5 0.25
vn -0.98363832875103985 -0.18015448429573228 0
vt 0.75 0.25
vn -0.96536748652010917 -0.18447983083503561 -0.18447983083503561
vt 0.75 0
vn -0.8735174587423723 -0.43675872937118615 -0.21496293073535933
vt 0.5 0.5
vn -1 0 0
vt 0.75 0.5
vn -0.98363832875103985 0 -0.18015448429573228
vt 0.75 0.25
vn -0.96536748652010917 -0.18447983083503561 -0.18447983083503561
vt 0.5 0.25
vn -0.98363832875103985 -0.18015448429573228 0
vt 1 0.5
vn -0.89442717907898661 0 -0.44721361934181564
vt 1 0.25
vn -0.8735174587423723 -0.21496293073535933 -0.43675872937118615
vt 0.75 0.25
vn -0.96536748652010917 -0.18447983083503561 -0.18447983083503561
vt 0.75 0.5
vn -0.98363832875103985 0 -0.18015448429573228
vt 0 0
vn -0.81649660079594022 -0.40824827059564806 0.40824827059564806
vt 0 0.25
vn -0.8735174587423723 -0.21496293073535933 0.43675872937118615
vt 0.25 0.25
vn -0.96536748652010917 -0.18447983083503561 0.18447983083503561
vt 0.25 0
vn -0.8735174587423723 -0.43675872937118615 0.21496293073535933
vt 0 0.5
vn -0.89442717907898661 0 0.44721361934181564
vt 0.25 0.5
vn -0.98363832875103985 0 0.18015448429573228
vt 0.25 0.25
vn -0.96536748652010917 -0.18447983083503561 0.18447983083503561
vt 0 0.25
vn -0.8735174587423723 -0.21496293073535933 0.43675872937118615
vt 0.5 0.5
vn -1 0 0
vt 0.5 0.25
vn -0.98363832875103985 -0.18015448429573228 0
vt 0.25 0.25
vn -0.96536748652010917 -0.18447983083503561 0.18447983083503561
vt 0.25 0.5
vn -0.98363832875103985 0 0.18015448429573228
vt 0.5 0
vn -0.89442717907898661 -0.44721361934181564 0
vt 0.25 0
vn -0.8735174587423723 -0.43675872937118615 0.21496293073535933
vt 0.25 0.25
vn -0.96536748652010917 -0.18447983083503561 0.18447983083503561
vt 0.5 0.25
vn -0.98363832875103985 -0.18015448429573228 0
vt 0 1
vn 0 0.70710678118654746 -0.70710678118654746
vt 0.25 1
vn -0.06465264512302743 0.70562739299101618 -0.70562739299101618
vt 0.25 0.75
vn -0.062606982313594559 0.93799596166137744 -0.34094565794644316
vt 0 0.75
vn 0 0.93979342522871867 -0.34174305830092994
vt 0.5 1
vn -0.28693601900314947 0.67737276332851781 -0.67737276332851781
vt 0.5 0.75
vn -0.27589654391725299 0.90218560152148208 -0.33157538729802732
vt 0.25 0.75
vn -0.062606982313594559 0.93799596166137744 -0.34094565794644316
vt 0.25 1
vn -0.06465264512302743 0.70562739299101618 -0.70562739299101618
vt 0.5 0.5
vn -0.26747804243746642 0.96356395574648845 0
vt 0.25 0.5
vn -0.061179509685497256 0.99812677931946203 0
vt 0.25 0.75
vn -0.062606982313594559 0.93799596166137744 -0.34094565794644316
vt 0.5 0.75
vn -0.27589654391725299 0.90218560152148208 -0.33157538729802732
vt 0 0.5
vn 0 1 0
vt 0 0.75
vn 0 0.93979342522871867 -0.34174305830092994
vt 0.25 0.75
vn -0.062606982313594559 0.93799596166137744 -0.34094565794644316
vt 0.25 0.5
vn -0.061179509685497256 0.99812677931946203 0
vt 1 1
vn -0.81649660079594022 0.40824827059564806 -0.40824827059564806
vt 1 0.75
vn -0.8735174587423723 0.43675872937118615 -0.21496293073535933
vt 0.75 0.75
vn -0.60523277431223499 0.74285989889416104 -0.28609868841585423
vt 0.75 1
vn -0.59801787320365341 0.56673389846072342 -0.56673389846072342
vt 1 0.5
vn -0.89442717907898661 0.44721361934181564 0
vt 0.75 0.5
vn -0.61323498868569692 0.78990053085920453 0
vt 0.75 0.75
vn -0.60523277431223499 0.74285989889416104 -0.28609868841585423
vt 1 0.75
vn -0.8735174587423723 0.43675872937118615 -0.21496293073535933
vt 0.5 0.5
vn -0.26747804243746642 0.96356395574648845 0
vt 0.5 0.75
vn -0.27589654391725299 0.90218560152148208 -0.33157538729802732
vt 0.75 0.75
vn -0.60523277431223499 0.74285989889416104 -0.28609868841585423
vt 0.75 0.5
vn -0.61323498868569692 0.78990053085920453 0
vt 0.5 1
vn -0.28693601900314947 0.67737276332851781 -0.67737276332851781
vt 0.75 1
vn -0.59801787320365341 0.56673389846072342 -0.56673389846072342
vt 0.75 0.75
vn -0.60523277431223499 0.74285989889416104 -0.28609868841585423
vt 0.5 0.75
vn -0.27589654391725299 0.90218560152148208 -0.33157538729802732
vt 1 0
vn -0.81649660079594022 0.40824827059564806 0.40824827059564806
vt 0.75 0
vn -0.59801787320365341 0.56673389846072342 0.56673389846072342
vt 0.75 0.25
vn -0.60523277431223499 0.74285989889416104 0.28609868841585423
vt 1 0.25
vn -0.8735174587423723 0.43675872937118615 0.21496293073535933
vt 0.5 0
vn -0.28693601900314947 0.67737276332851781 0.67737276332851781
vt 0.5 0.25
vn -0.27589654391725299 0.90218560152148208 0.33157538729802732
vt 0.75 0.25
vn -0.60523277431223499 0.74285989889416104 0.28609868841585423
vt 0.75 0
vn -0.59801787320365341 0.56673389846072342 0.56673389846072342
vt 0.5 0.5
vn -0.26747804243746642 0.96356395574648845 0
vt 0.75 0.5
vn -0.61323498868569692 0.78990053085920453 0
vt 0.75 0.25
vn -0.60523277431223499 0.74285989889416104 0.28609868841585423
vt 0.5 0.25
vn -0.27589654391725299 0.90218560152148208 0.33157538729802732
vt 1 0.5
vn -0.89442717907898661 0.44721361934181564 0
vt 1 0.25
vn -0.8735174587423723 0.43675872937118615 0.21496293073535933
vt 0.75 0.25
vn -0.60523277431223499 0.74285989889416104 0.28609868841585423
vt 0.75 0.5
vn -0.61323498868569692 0.78990053085920453 0
vt 0 0
vn 0 0.70710678118654746 0.70710678118654746
vt 0 0.25
vn 0 0.93979342522871867 0.34174305830092994
vt 0.25 0.25
vn -0.062606982313594559 0.93799596166137744 0.34094565794644316
vt 0.25 0
vn -0.06465264512302743 0.70562739299101618 0.70562739299101618
vt 0 0.5
vn 0 1 0
vt 0.25 0.5
vn -0.061179509685497256 0.99812677931946203 0
vt 0.25 0.25
vn -0.062606982313594559 0.93799596166137744 0.34094565794644316
vt 0 0.25
vn 0 0.93979342522871867 0.34174305830092994
vt 0.5 0.5
vn -0.26747804243746642 0.96356395574648845 0
vt 0.5 0.25
vn -0.27589654391725299 0.90218560152148208 0.33157538729802732
vt 0.25 0.25
vn -0.062606982313594559 0.93799596166137744 0.34094565794644316
vt 0.25 0.5
vn -0.061179509685497256 0.99812677931946203 0
vt 0.5 0
vn -0.28693601900314947 0.67737276332851781 0.67737276332851781
vt 0.25 0
vn -0.06465264512302743 0.70562739299101618 0.70562739299101618
vt 0.25 0.25
vn -0.062606982313594559 0.93799596166137744 0.34094565794644316
vt 0.5 0.25
vn -0.27589654391725299 0.90218560152148208 0.33157538729802732
vt 0 1
vn 0 -0.70710678118654746 0.70710678118654746
vt 0.25 1
vn -0.06465264512302743 -0.70562739299101618 0.70562739299101618
vt 0.25 0.75
vn -0.062606982313594559 -0.93799596166137744 0.34094565794644316
vt 0 0.75
vn 0 -0.93979342522871867 0.34174305830092994
vt 0.5 1
vn -0.28693601900314947 -0.67737276332851781 0.67737276332851781
vt 0.5 0.75
vn -0.27589654391725299 -0.90218560152148208 0.33157538729802732
vt 0.25 0.75
vn -0.062606982313594559 -0.93799596166137744 0.34094565794644316
vt 0.25 1
vn -0.06465264512302743 -0.70562739299101618 0.70562739299101618
vt 0.5 0.5
vn -0.26747804243746642 -0.96356395574648845 0
vt 0.25 0.5
vn -0.061179509685497256 -0.99812677931946203 0
vt 0.25 0.75
vn -0.062606982313594559 -0.93799596166137744 0.34094565794644316
vt 0.5 0.75
vn -0.27589654391725299 -0.90218560152148208 0.33157538729802732
vt 0 0.5
vn 0 -1 0
vt 0 0.75
vn 0 -0.93979342522871867 0.34174305830092994
vt 0.25 0.75
vn -0.062606982313594559 -0.93799596166137744 0.34094565794644316
vt 0.25 0.5
vn -0.061179509685497256 -0.99812677931946203 0
vt 1 1
vn -0.81649660079594022 -0.40824827059564806 0.40824827059564806
vt 1 0.75
vn -0.8735174587423723 -0.43675872937118615 0.21496293073535933
vt 0.75 0.75
vn -0.60523277431223499 -0.74285989889416104 0.28609868841585423
vt 0.75 1
vn -0.59801787320365341 -0.56673389846072342 0.56673389846072342
vt 1 0.5
vn -0.89442717907898661 -0.44721361934181564 0
vt 0.75 0.5
vn -0.61323498868569692 -0.78990053085920453 0
vt 0.75 0.75
vn -0.60523277431223499 -0.74285989889416104 0.28609868841585423
vt 1 0.75
vn -0.8735174587423723 -0.43675872937118615 0.21496293073535933
vt 0.5 0.5
vn -0.26747804243746642 -0.96356395574648845 0
vt 0.5 0.75
vn -0.27589654391725299 -0.90218560152148208 0.33157538729802732
vt 0.75 0.75
vn -0.60523277431223499 -0.74285989889416104 0.28609868841585423
vt 0.75 0.5
vn -0.61323498868569692 -0.78990053085920453 0
vt 0.5 1
vn -0.28693601900314947 -0.67737276332851781 0.67737276332851781
vt 0.75 1
vn -0.59801787320365341 -0.56673389846072342 0.56673389846072342
vt 0.75 0.75
vn -0.60523277431223499 -0.74285989889416104 0.28609868841585423
vt 0.5 0.75
vn -0.27589654391725299 -0.90218560152148208 0.33157538729802732
vt 1 0
vn -0.81649660079594022 -0.40824827059564806 -0.40824827059564806
vt 0.75 0
vn -0.59801787320365341 -0.56673389846072342 -0.56673389846072342
vt 0.75 0.25
vn -0.60523277431223499 -0.74285989889416104 -0.28609868841585423
vt 1 0.25
vn -0.8735174587423723 -0.43675872937118615 -0.21496293073535933
vt 0.5 0
vn -0.28693601900314947 -0.67737276332851781 -0.67737276332851781
vt 0.5 0.25
vn -0.27589654391725299 -0.90218560152148208 -0.33157538729802732
vt 0.75 0.25
vn -0.60523277431223499 -0.74285989889416104 -0.28609868841585423
vt 0.75 0
vn -0.59801787320365341 -0.56673389846072342 -0.56673389846072342
vt 0.5 0.5
vn -0.26747804243746642 -0.96356395574648845 0
vt 0.75 0.5
vn -0.61323498868569692 -0.78990053085920453 0
vt 0.75 0.25
vn -0.60523277431223499 -0.74285989889416104 -0.28609868841585423
vt 0.5 0.25
vn -0.27589654391725299 -0.90218560152148208 -0.33157538729802732
vt 1 0.5
vn -0.89442717907898661 -0.44721361934181564 0
vt 1 0.25
vn -0.8735174587423723 -0.43675872937118615 -0.21496293073535933
vt 0.75 0.25
vn -0.60523277431223499 -0.74285989889416104 -0.28609868841585423
vt 0.75 0.5
vn -0.61323498868569692 -0.78990053085920453 0
vt 0 0
vn 0 -0.70710678118654746 -0.70710678118654746
vt 0 0.25
vn 0 -0.93979342522871867 -0.34174305830092994
vt 0.25 0.25
vn -0.062606982313594559 -0.93799596166137744 -0.34094565794644316
vt 0.25 0
vn -0.06465264512302743 -0.70562739299101618 -0.70562739299101618
vt 0 0.5
vn 0 -1 0
vt 0.25 0.5
vn -0.061179509685497256 -0.99812677931946203 0
vt 0.25 0.25
vn -0.062606982313594559 -0.93799596166137744 -0.34094565794644316
vt 0 0.25
vn 0 -0.93979342522871867 -0.34174305830092994
vt 0.5 0.5
vn -0.26747804243746642 -0.96356395574648845 0
vt 0.5 0.25
vn -0.27589654391725299 -0.90218560152148208 -0.33157538729802732
vt 0.25 0.25
vn -0.062606982313594559 -0.93799596166137744 -0.34094565794644316
vt 0.25 0.5
vn -0.061179509685497256 -0.99812677931946203 0
vt 0.5 0
vn -0.28693601900314947 -0.67737276332851781 -0.67737276332851781
vt 0.25 0
vn -0.06465264512302743 -0.70562739299101618 -0.70562739299101618
vt 0.25 0.25
vn -0.062606982313594559 -0.93799596166137744 -0.34094565794644316
vt 0.5 0.25
vn -0.27589654391725299 -0.90218560152148208 -0.33157538729802732
f 5/1/1 58/2/2 123/3/3 59/4/4
f 23/5/5 103/6/6 123/7/7 58/8/8
f 33/9/9 105/10/10 123/11/11 103/12/12
f 24/13/13 59/14/14 123/15/15 105/16/16
f 6/17/17 63/18/18 124/19/19 62/20/20
f 26/21/21 109/22/22 124/23/23 63/24/24
f 33/25/25 103/26/26 124/27/27 109/28/28
f 23/29/29 62/30/30 124/31/31 103/32/32
f 7/33/33 66/34/34 125/35/35 65/36/36
f 27/37/37 111/38/38 125/39/39 66/40/40
f 33/41/41 109/42/42 125/43/43 111/44/44
f 26/45/45 65/46/46 125/47/47 109/48/48
f 8/49/49 68/50/50 126/51/51 69/52/52
f 24/53/53 105/54/54 126/55/55 68/56/56
f 33/57/57 111/58/58 126/59/59 105/60/60
f 27/61/61 69/62/62 126/63/63 111/64/64
f 2/65/65 47/66/66 127/67/67 48/68/68
f 13/69/69 83/70/70 127/71/71 47/72/72
f 34/73/73 91/74/74 127/75/75 83/76/76
f 17/77/77 48/78/78 127/79/79 91/80/80
f 1/81/81 44/82/82 128/83/83 43/84/84
f 14/85/85 85/86/86 128/87/87 44/88/88
f 34/89/89 83/90/90 128/91/91 85/92/92
f 13/93/93 43/94/94 128/95/95 83/96/96
f 4/97/97 54/98/98 129/99/99 53/100/100
f 19/101/101 95/102/102 129/103/103 54/104/104
f 34/105/105 85/106/106 129/107/107 95/108/108
f 14/109/109 53/110/110 129/111/111 85/112/112
f 3/113/113 50/114/114 130/115/115 51/116/116
f 17/117/117 91/118/118 130/119/119 50/120/120
f 34/121/121 95/122/122 130/123/123 91/124/124
f 19/125/125 51/126/126 130/127/127 95/128/128
f 6/129/129 61/130/130 131/131/131 63/132/132
f 18/133/133 93/134/134 131/135/135 61/136/136
f 35/137/137 110/138/138 131/139/139 93/140/140
f 26/141/141 63/142/142 131/143/143 110/144/144
f 2/145/145 48/146/146 132/147/147 49/148/148
f 17/149/149 92/150/150 132/151/151 48/152/152
f 35/153/153 93/154/154 132/155/155 92/156/156
f 18/157/157 49/158/158 132/159/159 93/160/160
f 3/161/161 52/162/162 133/163/163 50/164/164
f 20/165/165 97/166/166 133/167/167 52/168/168
f 35/169/169 92/170/170 133/171/171 97/172/172
f 17/173/173 50/174/174 133/175/175 92/176/176
f 7/177/177 65/178/178 134/179/179 64/180/180
f 26/181/181 110/182/182 134/183/183 65/184/184
f 35/185/185 97/186/186 134/187/187 110/188/188
f 20/189/189 64/190/190 134/191/191 97/192/192
f 8/193/193 69/194/194 135/195/195 67/196/196
f 27/197/197 112/198/198 135/199/199 69/200/200
f 36/201/201 99/202/202 135/203/203 112/204/204
f 21/205/205 67/206/206 135/207/207 99/208/208
f 7/209/209 64/210/210 136/211/211 66/212/212
f 20/213/213 98/214/214 136/215/215 64/216/216
f 36/217/217 112/218/218 136/219/219 98/220/220
f 27/221/221 66/222/222 136/223/223 112/224/224
f 3/225/225 51/226/226 137/227/227 52/228/228
f 19/229/229 96/230/230 137/231/231 51/232/232
f 36/233/233 98/234/234 137/235/235 96/236/236
f 20/237/237 52/238/238 137/239/239 98/240/240
f 4/241/241 55/242/242 138/243/243 54/244/244
f 21/245/245 99/246/246 138/247/247 55/248/248
f 36/249/249 96/250/250 138/251/251 99/252/252
f 19/253/253 54/254/254 138/255/255 96/256/256
f 1/257/257 43/258/258 139/259/259 45/260/260
f 13/261/261 84/262/262 139/263/263 43/264/264
f 37/265/265 87/266/266 139/267/267 84/268/268
f 15/269/269 45/270/270 139/271/271 87/272/272
f 2/273/273 49/274/274 140/275/275 47/276/276
f 18/277/277 94/278/278 140/279/279 49/280/280
f 37/281/281 84/282/282 140/283/283 94/284/284
f 13/285/285 47/286/286 140/287/287 84/288/288
f 6/289/289 62/290/290 141/291/291 61/292/292
f 23/293/293 104/294/294 141/295/295 62/296/296
f 37/297/297 94/298/298 141/299/299 104/300/300
f 18/301/301 61/302/302 141/303/303 94/304/304
f 5/305/305 57/306/306 142/307/307 58/308/308
f 15/309/309 87/310/310 142/311/311 57/312/312
f 37/313/313 104/314/314 142/315/315 87/316/316
f 23/317/317 58/318/318 142/319/319 104/320/320
f 8/321/321 70/322/322 143/323/323 68/324/324
f 28/325/325 113/326/326 143/327/327 70/328/328
f 38/329/329 106/330/330 143/331/331 113/332/332
f 24/333/333 68/334/334 143/335/335 106/336/336
f 12/337/337 82/338/338 144/339/339 80/340/340
f 32/341/341 121/342/342 144/343/343 82/344/344
f 38/345/345 113/346/346 144/347/347 121/348/348
f 28/349/349 80/350/350 144/351/351 113/352/352
f 11/353/353 77/354/354 145/355/355 79/356/356
f 25/357/357 107/358/358 145/359/359 77/360/360
f 38/361/361 121/362/362 145/363/363 107/364/364
f 32/365/365 79/366/366 145/367/367 121/368/368
f 5/369/369 59/370/370 146/371/371 60/372/372
f 24/373/373 106/374/374 146/375/375 59/376/376
f 38/377/377 107/378/378 146/379/379 106/380/380
f 25/381/381 60/382/382 146/383/383 107/384/384
f 10/385/385 74/386/386 147/387/387 75/388/388
f 22/389/389 101/390/390 147/391/391 74/392/392
f 39/393/393 115/394/394 147/395/395 101/396/396
f 29/397/397 75/398/398 147/399/399 115/400/400
f 4/401/401 53/402/402 148/403/403 56/404/404
f 14/405/405 86/406/406 148/407/407 53/408/408
f 39/409/409 101/410/410 148/411/411 86/412/412
f 22/413/413 56/414/414 148/415/415 101/416/416
f 1/417/417 46/418/418 149/419/419 44/420/420
f 16/421/421 89/422/422 149/423/423 46/424/424
f 39/425/425 86/426/426 149/427/427 89/428/428
f 14/429/429 44/430/430 149/431/431 86/432/432
f 9/433/433 72/434/434 150/435/435 71/436/436
f 29/437/437 115/438/438 150/439/439 72/440/440
f 39/441/441 89/442/442 150/443/443 115/444/444
f 16/445/445 71/446/446 150/447/447 89/448/448
f 12/449/449 81/450/450 151/451/451 82/452/452
f 31/453/453 119/454/454 151/455/455 81/456/456
f 40/457/457 122/458/458 151/459/459 119/460/460
f 32/461/461 82/462/462 151/463/463 122/464/464
f 10/465/465 75/466/466 152/467/467 76/468/468
f 29/469/469 116/470/470 152/471/471 75/472/472
f 40/473/473 119/474/474 152/475/475 116/476/476
f 31/477/477 76/478/478 152/479/479 119/480/480
f 9/481/481 73/482/482 153/483/483 72/484/484
f 30/485/485 117/486/486 153/487/487 73/488/488
f 40/489/489 116/490/490 153/491/491 117/492/492
f 29/493/493 72/494/494 153/495/495 116/496/496
f 11/497/497 79/498/498 154/499/499 78/500/500
f 32/501/501 122/502/502 154/503/503 79/504/504
f 40/505/505 117/506/506 154/507/507 122/508/508
f 30/509/509 78/510/510 154/511/511 117/512/512
f 4/513/513 56/514/514 155/515/515 55/516/516
f 22/517/517 102/518/518 155/519/519 56/520/520
f 41/521/521 100/522/522 155/523/523 102/524/524
f 21/525/525 55/526/526 155/527/527 100/528/528
f 10/529/529 76/530/530 156/531/531 74/532/532
f 31/533/533 120/534/534 156/535/535 76/536/536
f 41/537/537 102/538/538 156/539/539 120/540/540
f 22/541/541 74/542/542 156/543/543 102/544/544
f 12/545/545 80/546/546 157/547/547 81/548/548
f 28/549/549 114/550/550 157/551/551 80/552/552
f 41/553/553 120/554/554 157/555/555 114/556/556
f 31/557/557 81/558/558 157/559/559 120/560/560
f 8/561/561 67/562/562 158/563/563 70/564/564
f 21/565/565 100/566/566 158/567/567 67/568/568
f 41/569/569 114/570/570 158/571/571 100/572/572
f 28/573/573 70/574/574 158/575/575 114/576/576
f 5/577/577 60/578/578 159/579/579 57/580/580
f 25/581/581 108/582/582 159/583/583 60/584/584
f 42/585/585 88/586/586 159/587/587 108/588/588
f 15/589/589 57/590/590 159/591/591 88/592/592
f 11/593/593 78/594/594 160/595/595 77/596/596
f 30/597/597 118/598/598 160/599/599 78/600/600
f 42/601/601 108/602/602 160/603/603 118/604/604
f 25/605/605 77/606/606 160/607/607 108/608/608
f 9/609/609 71/610/610 161/611/611 73/612/612
f 16/613/613 90/614/614 161/615/615 71/616/616
f 42/617/617 118/618/618 161/619/619 90/620/620
f 30/621/621 73/622/622 161/623/623 118/624/624
f 1/625/625 45/626/626 162/627/627 46/628/628
f 15/629/629 88/630/630 162/631/631 45/632/632
f 42/633/633 90/634/634 162/635/635 88/636/636
f 16/637/637 46/638/638 162/639/639 90/640/640
